<?xml version="1.0" encoding="UTF-8" standalone="no"?>
<svg
   xmlns:dc="http://purl.org/dc/elements/1.1/"
   xmlns:cc="http://creativecommons.org/ns#"
   xmlns:rdf="http://www.w3.org/1999/02/22-rdf-syntax-ns#"
   xmlns:svg="http://www.w3.org/2000/svg"
   xmlns="http://www.w3.org/2000/svg"
   xmlns:sodipodi="http://sodipodi.sourceforge.net/DTD/sodipodi-0.dtd"
   xmlns:inkscape="http://www.inkscape.org/namespaces/inkscape"
   version="1.1"
   x="0px"
   y="0px"
   viewBox="0 0 125 125"
   enable-background="new 0 0 100 100"
   xml:space="preserve"
   id="svg16"
   sodipodi:docname="1day.svg"
   width="125"
   height="125"
   inkscape:version="0.92.2 5c3e80d, 2017-08-06"><metadata
     id="metadata22"><rdf:RDF><cc:Work
         rdf:about=""><dc:format>image/svg+xml</dc:format><dc:type
           rdf:resource="http://purl.org/dc/dcmitype/StillImage" /><dc:title></dc:title></cc:Work></rdf:RDF></metadata><defs
     id="defs20" /><sodipodi:namedview
     pagecolor="#ffffff"
     bordercolor="#666666"
     borderopacity="1"
     objecttolerance="10"
     gridtolerance="10"
     guidetolerance="10"
     inkscape:pageopacity="0"
     inkscape:pageshadow="2"
     inkscape:window-width="1600"
     inkscape:window-height="728"
     id="namedview18"
     showgrid="false"
     inkscape:zoom="3.776"
     inkscape:cx="62.95495"
     inkscape:cy="63.281345"
     inkscape:window-x="0"
     inkscape:window-y="41"
     inkscape:window-maximized="0"
     inkscape:current-layer="svg16" /><g
     id="g6"
     transform="translate(14.565678,10.32839)"><path
       d="m 28.908,87.165 c 3.12,0.009 5.656,2.544 5.669,5.669 -0.014,3.129 -2.55,5.664 -5.669,5.671 -3.136,-0.007 -5.669,-2.542 -5.665,-5.671 -0.004,-3.125 2.529,-5.66 5.665,-5.669 z"
       id="path2"
       inkscape:connector-curvature="0" /><path
       d="M 80.016,92.742 67.827,77.005 c -0.704,-0.906 -1.812,-1.422 -2.95,-1.38 -1.147,0.039 -1.938,0.615 -2.848,1.583 L 52.557,87.797 H 41.387 V 72.558 c 0,-1.625 -0.665,-3.013 -2.482,-3.013 -1.951,0 -2.785,1.388 -2.785,3.013 v 23.296 c 0,1.589 1.266,2.878 2.842,2.932 v 0.008 h 13.049 c 3.028,0.007 4.898,-1.014 5.903,-2.48 0.258,-0.374 7.298,-11.009 7.298,-11.009 l 9.151,11.814 c 0.706,0.91 1.762,1.389 2.828,1.389 0.765,-0.002 1.535,-0.245 2.186,-0.75 1.561,-1.209 1.847,-3.455 0.639,-5.016 z"
       id="path4"
       inkscape:connector-curvature="0" /></g><path
     d="m 84.607678,56.68139 c -1.799,-2.627 -5.396,-3.296 -8.033,-1.481 -2.626,1.806 -3.291,5.402 -1.487,8.021 1.813,2.635 5.406,3.3 8.037,1.494 2.634,-1.815 3.295,-5.407 1.483,-8.034 z"
     id="path8"
     inkscape:connector-curvature="0" /><path
     d="m 59.401678,38.43239 -3.659,2.733 c -5.392,-8.771 -3.112,-23.231 -2.827,-24.885 0.391,-2.261 -1.122,-4.411 -3.386,-4.802 -2.26,-0.392 -4.413,1.125 -4.801,3.387 -0.805,4.637 -2.854,20.615 4.433,31.485 3.289,4.915 7.401,8.187 10.811,10.271 l -5.849,2.936 c -3.018,1.384 -3.381,3.629 -3.37,4.988 0.016,1.362 0.011,10.801 0.011,10.801 0.282,3.735 5.388,3.476 5.251,-0.221 l 0.011,-10.314 11.103,-2.979 c 7.288,-1.995 7.898,-8.844 2.644,-15.787 -3.757,-4.956 -10.372,-7.613 -10.372,-7.613 z"
     id="path10"
     inkscape:connector-curvature="0" /></svg>