<?xml version="1.0" encoding="UTF-8" standalone="no"?>
<svg
   xmlns:dc="http://purl.org/dc/elements/1.1/"
   xmlns:cc="http://creativecommons.org/ns#"
   xmlns:rdf="http://www.w3.org/1999/02/22-rdf-syntax-ns#"
   xmlns:svg="http://www.w3.org/2000/svg"
   xmlns="http://www.w3.org/2000/svg"
   xmlns:sodipodi="http://sodipodi.sourceforge.net/DTD/sodipodi-0.dtd"
   xmlns:inkscape="http://www.inkscape.org/namespaces/inkscape"
   version="1.1"
   x="0px"
   y="0px"
   viewBox="0 0 701.99998 702.00001"
   enable-background="new 0 0 296.639 561.342"
   xml:space="preserve"
   id="svg16"
   sodipodi:docname="2day.svg"
   width="702"
   height="702"
   inkscape:version="0.92.2 5c3e80d, 2017-08-06"><metadata
     id="metadata22"><rdf:RDF><cc:Work
         rdf:about=""><dc:format>image/svg+xml</dc:format><dc:type
           rdf:resource="http://purl.org/dc/dcmitype/StillImage" /><dc:title></dc:title></cc:Work></rdf:RDF></metadata><defs
     id="defs20" /><sodipodi:namedview
     pagecolor="#ffffff"
     bordercolor="#666666"
     borderopacity="1"
     objecttolerance="10"
     gridtolerance="10"
     guidetolerance="10"
     inkscape:pageopacity="0"
     inkscape:pageshadow="2"
     inkscape:window-width="1600"
     inkscape:window-height="728"
     id="namedview18"
     showgrid="false"
     inkscape:zoom="0.67267371"
     inkscape:cx="20.926694"
     inkscape:cy="365.6266"
     inkscape:window-x="0"
     inkscape:window-y="41"
     inkscape:window-maximized="0"
     inkscape:current-layer="svg16" /><g
     id="g10"
     transform="matrix(1.0801843,0,0,1.1112287,205.15142,38.974253)"><path
       d="m 119.101,244.762 c 0,-15.165 12.293,-27.458 27.458,-27.458 15.165,0 27.458,12.293 27.458,27.458 0,15.165 -12.294,27.458 -27.458,27.458 -15.165,0 -27.458,-12.293 -27.458,-27.458 z"
       id="path2"
       inkscape:connector-curvature="0" /><path
       d="M 47.083,33.007 C 42.954,28.893 38.817,24.786 34.671,20.689 30.744,16.376 37.693,9.373 40.711,6.636 44.615,3.324 51.883,-2.021 57.247,0.789 61.705,3.515 66.07,6.387 70.36,9.373 66.31,15.444 60.95,21.55 54.496,27.161 c -2.433,2.114 -4.914,4.066 -7.413,5.846 z M 222.385,10.211 c 4.369,-3.094 8.817,-6.071 13.364,-8.896 5.326,-2.736 12.473,2.611 16.309,5.916 2.975,2.71 10.006,9.749 6.093,14.02 l -12.452,12.638 c -3.323,-2.365 -6.621,-5.049 -9.819,-8.032 -5.355,-4.994 -9.894,-10.321 -13.495,-15.646 z M 95.757,156.429 C 93.257,130.798 91.538,105.096 90.675,79.354 90.596,78.525 90.4,77.716 90.105,76.937 89.812,76.19 89.392,75.503 88.825,74.931 75.582,61.573 62.335,48.217 49.016,34.934 c 2.446,-1.75 4.873,-3.662 7.254,-5.732 6.646,-5.777 12.131,-12.08 16.221,-18.33 13.973,9.906 27.158,20.981 40.135,32.092 9.527,8.05 21.981,11.916 34.367,11.938 12.376,0.022 24.886,-3.722 34.409,-11.789 12.577,-10.83 25.34,-21.638 38.838,-31.37 3.648,5.474 8.291,10.959 13.794,16.091 3.18,2.964 6.456,5.634 9.759,7.989 -12.881,13.083 -25.749,26.179 -38.616,39.274 -0.562,0.57 -0.976,1.253 -1.265,1.997 -0.289,0.776 -0.48,1.583 -0.558,2.409 -0.727,24.18 -2.248,48.324 -4.507,72.403 -14.444,7.462 -34.531,12.087 -56.742,12.087 -17.29,0.001 -33.293,-2.803 -46.348,-7.564 z m 2.643,25.019 c 0.088,-0.534 -0.378,-0.961 -0.416,-1.479 0.089,-0.421 0.151,-0.85 0.14,-1.282 -0.682,-5.926 -1.324,-11.857 -1.924,-17.791 12.975,4.664 28.811,7.405 45.905,7.405 21.989,0 41.897,-4.535 56.309,-11.866 -0.812,8.312 -1.71,16.616 -2.694,24.91 -0.153,1.697 0.165,3.394 1.069,4.851 0.895,1.47 2.3,2.462 3.971,2.859 18.555,5.025 37.195,9.741 55.995,13.763 3.713,0.795 6.146,3.603 7.044,7.211 0.861,4.339 -0.342,8.727 -2.342,12.581 -10.498,19.849 -22.708,38.788 -37.497,55.728 -3.104,3.345 -6.97,6.081 -11.204,8.025 -7.927,-0.788 -15.874,-1.4 -23.827,-1.867 -0.873,-2.347 -0.364,-5.3 1.914,-8.453 7.136,-9.455 13.658,-19.344 19.765,-29.492 0.8,-1.406 1.198,-3.067 0.59,-4.622 -0.698,-1.437 -2.139,-2.2 -3.654,-2.49 -10.827,-1.757 -21.589,-3.867 -32.287,-6.262 -4.586,-11.348 -15.706,-19.354 -28.697,-19.354 -13.131,0 -24.352,8.18 -28.843,19.723 -10.431,2.353 -20.921,4.434 -31.476,6.184 -1.533,0.299 -2.991,1.069 -3.707,2.516 -0.623,1.555 -0.239,3.222 0.562,4.633 6.083,10.128 12.573,20.005 19.673,29.451 2.154,3.039 2.657,5.868 1.891,8.16 -8.316,0.492 -16.623,1.146 -24.906,1.992 -3.961,-1.891 -7.576,-4.48 -10.506,-7.633 -14.855,-16.961 -27.128,-35.932 -37.705,-55.806 -1.961,-3.879 -3.091,-8.279 -2.193,-12.61 0.943,-3.658 3.451,-6.467 7.211,-7.273 19.052,-4.081 37.942,-8.866 56.742,-13.973 1.664,-0.43 3.036,-1.472 4.008,-2.876 0.912,-1.459 1.24,-3.16 1.089,-4.863 z"
       id="path4"
       inkscape:connector-curvature="0" /><path
       d="m 121.514,305.929 c 0,-15.165 12.293,-27.458 27.458,-27.458 15.166,0 27.458,12.293 27.458,27.458 0,15.164 -12.293,27.458 -27.458,27.458 -15.165,0 -27.458,-12.294 -27.458,-27.458 z"
       id="path6"
       inkscape:connector-curvature="0" /><path
       d="m 115.276,542.932 c -1.662,4.644 -3.36,9.274 -5.102,13.889 -3.346,7.086 -15.636,4.152 -21.347,2.437 -6.187,-2.065 -17.482,-6.669 -17.336,-14.637 0.36,-3.72 0.77,-7.435 1.226,-11.146 6.111,-0.12 12.695,0.437 19.464,1.752 8.594,1.67 16.453,4.365 23.095,7.705 z m 109.682,-10.578 c 0.38,3.773 0.704,7.55 0.969,11.331 -0.074,7.935 -11.164,12.61 -17.392,14.782 -5.479,1.728 -17.799,4.917 -20.919,-2.152 -2.347,-6.749 -4.63,-13.519 -6.865,-20.306 4.294,-1.437 8.898,-2.613 13.728,-3.465 11.107,-1.958 21.684,-1.894 30.479,-0.19 z M 199.274,367.085 c 0.175,13.53 0.16,27.063 -0.033,40.596 l -0.005,0.355 -0.006,0.381 -0.006,0.381 c 10.384,39.609 21.075,80.041 25.461,120.931 -8.833,-1.741 -19.486,-1.82 -30.677,0.152 -4.966,0.876 -9.694,2.095 -14.092,3.588 C 172.889,512 166.327,490.374 159.78,468.76 c -1.354,-4.33 -5.596,-6.946 -10.04,-6.933 -4.5,0.014 -8.79,2.678 -10.286,6.997 -7.434,23.971 -14.906,47.973 -23.299,71.637 -6.718,-3.425 -14.708,-6.188 -23.459,-7.889 -6.835,-1.329 -13.483,-1.883 -19.646,-1.748 5.329,-41.354 16.262,-82.157 26.938,-122.321 -0.17,-12.926 -0.196,-25.853 -0.068,-38.778 14.068,-6.368 32.604,-10.237 52.917,-10.237 17.33,-10e-4 33.365,2.816 46.437,7.597 z m -1.15,-41.681 c 0.53,12.445 0.89,24.896 1.088,37.351 -13.061,-4.769 -29.073,-7.575 -46.374,-7.575 -20.289,0 -38.806,3.86 -52.868,10.216 0.168,-13.407 0.501,-26.813 1.011,-40.215 0.031,-1.304 -0.385,-2.567 -1.313,-3.503 -0.966,-0.907 -2.248,-1.294 -3.557,-1.253 -29.105,1.411 -58.213,3.8 -86.958,8.697 -7.782,1.021 -10.02,-7.229 -8.869,-13.448 1.393,-7.525 6.607,-15.5 14.21,-17.812 21.417,-5.526 43.258,-9.131 65.26,-11.378 4.919,2.347 10.373,3.615 15.714,3.543 4.766,-0.3 8.149,-2.421 9.191,-5.535 7.654,-0.452 15.317,-0.767 22.976,-0.968 -5.915,5.636 -9.602,13.589 -9.602,22.404 0,17.087 13.852,30.938 30.938,30.938 17.087,0 30.939,-13.851 30.939,-30.938 0,-8.745 -3.628,-16.642 -9.461,-22.269 6.159,0.201 12.32,0.476 18.479,0.837 1.089,2.927 4.328,4.911 8.969,5.165 5.048,0.031 10.179,-1.149 14.858,-3.298 23.519,2.335 46.859,6.211 69.664,12.393 7.471,2.376 12.526,10.323 13.923,17.731 1.135,6.013 -0.846,14.303 -8.508,13.233 -28.049,-5.026 -56.489,-7.499 -84.923,-9.031 -1.292,-0.048 -2.557,0.332 -3.508,1.23 -0.916,0.935 -1.316,2.192 -1.279,3.485 z"
       id="path8"
       inkscape:connector-curvature="0" /></g></svg>