<?xml version="1.0" encoding="UTF-8" standalone="no"?>
<svg
   xmlns:dc="http://purl.org/dc/elements/1.1/"
   xmlns:cc="http://creativecommons.org/ns#"
   xmlns:rdf="http://www.w3.org/1999/02/22-rdf-syntax-ns#"
   xmlns:svg="http://www.w3.org/2000/svg"
   xmlns="http://www.w3.org/2000/svg"
   xmlns:sodipodi="http://sodipodi.sourceforge.net/DTD/sodipodi-0.dtd"
   xmlns:inkscape="http://www.inkscape.org/namespaces/inkscape"
   version="1.1"
   x="0px"
   y="0px"
   viewBox="0 0 705.00003 704.99998"
   enable-background="new 0 0 305.257 564.666"
   xml:space="preserve"
   id="svg16"
   sodipodi:docname="3day.svg"
   width="705"
   height="705"
   inkscape:version="0.92.2 5c3e80d, 2017-08-06"><metadata
     id="metadata22"><rdf:RDF><cc:Work
         rdf:about=""><dc:format>image/svg+xml</dc:format><dc:type
           rdf:resource="http://purl.org/dc/dcmitype/StillImage" /><dc:title></dc:title></cc:Work></rdf:RDF></metadata><defs
     id="defs20" /><sodipodi:namedview
     pagecolor="#ffffff"
     bordercolor="#666666"
     borderopacity="1"
     objecttolerance="10"
     gridtolerance="10"
     guidetolerance="10"
     inkscape:pageopacity="0"
     inkscape:pageshadow="2"
     inkscape:window-width="1600"
     inkscape:window-height="728"
     id="namedview18"
     showgrid="false"
     inkscape:zoom="0.33435694"
     inkscape:cx="-68.38319"
     inkscape:cy="315.46675"
     inkscape:window-x="0"
     inkscape:window-y="41"
     inkscape:window-maximized="0"
     inkscape:current-layer="svg16" /><g
     id="g10"
     transform="matrix(1.0881795,0,0,1.0847458,194.40303,35.057246)"><path
       d="M 21.008,67.759 C 15.93,67.035 10.84,66.406 5.736,65.885 -3.324,64.524 0.325,53.479 3.359,48.188 8.042,40.603 15.91,32.765 25.261,31.978 c 2.521,-0.104 5.042,-0.168 7.562,-0.196 -3.504,5.997 -6.527,13.034 -8.743,20.763 -1.489,5.19 -2.503,10.309 -3.072,15.214 z M 207.882,19.861 c -1.944,-2.661 -3.934,-5.29 -5.974,-7.882 -4.6,-6.149 -2.776,-12.191 5.445,-11.973 6.745,0.499 13.397,3.328 18.893,7.464 -7.313,3.58 -13.573,7.854 -18.364,12.391 z m 8.573,152.972 c 0.414,8.928 0.693,17.862 0.839,26.802 0.052,0.91 0.205,1.809 0.487,2.676 0.317,0.772 0.79,1.463 1.338,2.09 17.004,19.687 33.912,39.614 48.787,60.984 1.698,2.802 0.904,6.134 -0.742,9.202 -5.117,-3.927 -12.578,-7.228 -18.438,-3.593 -3.788,2.63 -7.537,5.313 -11.251,8.043 -14.182,-13.579 -28.087,-27.448 -41.953,-41.346 -8.988,-8.695 -21.337,-12.92 -33.746,-12.827 -13.353,0.1 -26.376,5.049 -36.501,13.72 -18.583,16.352 -37.539,32.375 -57.495,47.043 -2.906,-2.782 -5.823,-5.552 -8.754,-8.308 -4.75,-3.998 -12.248,2.384 -15.553,5.64 -1.676,1.753 -3.881,4.326 -5.38,7.119 -0.578,-0.444 -1.126,-0.896 -1.639,-1.347 -4.336,-4.061 -9.871,-12.138 -4.503,-17.547 23.562,-22.021 46.787,-44.401 69.933,-66.857 0.668,-0.644 1.268,-1.36 1.7,-2.185 0.381,-0.888 0.562,-1.837 0.571,-2.802 0.725,-8.324 1.486,-16.644 2.285,-24.96 14.128,6.504 32.863,10.466 53.418,10.466 22.135,0.001 42.163,-4.595 56.597,-12.013 z m -6.594,-73.135 c -0.073,0.508 0.364,0.918 0.409,1.411 -0.086,0.463 -0.055,0.932 0.071,1.385 2.813,21.968 4.776,44.029 5.907,66.138 -14.418,7.356 -34.36,11.908 -56.393,11.908 -20.361,0 -38.938,-3.888 -53.019,-10.284 2.431,-24.902 5.203,-49.77 8.34,-74.594 0.276,-1.697 -0.102,-3.377 -1.125,-4.764 -0.925,-1.45 -2.313,-2.476 -3.971,-2.934 C 81.69,79.936 52.887,72.503 23.65,68.145 c 0.576,-4.796 1.577,-9.791 3.029,-14.855 2.311,-8.059 5.498,-15.364 9.194,-21.524 41.109,0.026 82.076,9.7 121.2,21.5 1.958,0.592 3.979,0.943 6.02,1.065 1.983,0.119 3.973,-0.007 5.928,-0.347 16.611,-3.229 33.343,-5.817 50.198,-7.367 1.368,-0.099 2.661,-0.707 3.203,-2.036 0.496,-1.417 0.038,-2.902 -0.713,-4.137 -3.925,-6.321 -8.031,-12.525 -12.367,-18.567 5.028,-4.627 11.582,-8.959 19.212,-12.534 1.09,0.952 2.119,1.956 3.08,3.002 14.21,16.221 26.048,34.281 36.204,53.273 1.854,3.58 3.174,7.668 2.478,11.731 -0.608,3.174 -2.675,5.572 -5.935,6.111 -16.789,2.402 -33.441,5.661 -50.012,9.26 -1.473,0.306 -2.67,1.206 -3.438,2.492 -0.924,1.316 -1.237,2.902 -1.07,4.486 z"
       id="path2"
       inkscape:connector-curvature="0" /><path
       d="m 88.614,387.569 c -0.312,-7.508 -0.529,-15.021 -0.652,-22.538 -0.052,-0.909 -0.205,-1.809 -0.487,-2.676 -0.318,-0.772 -0.79,-1.464 -1.337,-2.091 -17.004,-19.687 -33.912,-39.614 -48.789,-60.983 -1.698,-2.802 -0.903,-6.135 0.743,-9.202 5.117,3.927 12.578,7.227 18.438,3.592 3.788,-2.63 7.536,-5.312 11.25,-8.043 14.182,13.578 28.087,27.448 41.954,41.346 8.987,8.695 21.336,12.92 33.746,12.827 13.353,-0.1 26.376,-5.049 36.501,-13.72 18.583,-16.353 37.539,-32.375 57.494,-47.043 2.906,2.782 5.823,5.552 8.755,8.308 4.75,3.998 12.249,-2.384 15.553,-5.64 1.677,-1.753 3.882,-4.326 5.381,-7.119 0.578,0.443 1.126,0.896 1.639,1.346 4.337,4.062 9.872,12.138 4.504,17.547 -23.562,22.021 -46.787,44.4 -69.934,66.857 -0.668,0.644 -1.268,1.36 -1.699,2.185 -0.381,0.889 -0.562,1.838 -0.57,2.803 -0.671,7.703 -1.373,15.403 -2.107,23.1 -14.392,-7.259 -34.199,-11.742 -56.065,-11.742 -20.994,0 -40.091,4.132 -54.318,10.886 z m 10.528,159.63 c 1.379,1.846 2.78,3.676 4.206,5.487 4.601,6.15 2.777,12.191 -5.444,11.974 -4.461,-0.33 -8.88,-1.679 -12.951,-3.75 6.028,-4.274 10.879,-8.983 14.189,-13.711 z m 186.897,-50.041 c 4.483,0.619 8.978,1.163 13.481,1.623 9.061,1.36 5.41,12.405 2.378,17.696 -4.684,7.586 -12.552,15.424 -21.902,16.211 l -1.59,0.061 c 1.521,-3.559 2.872,-7.348 4.011,-11.319 2.435,-8.49 3.602,-16.786 3.622,-24.272 z M 95.395,464.968 c 0.074,-0.508 -0.365,-0.918 -0.409,-1.41 0.085,-0.463 0.054,-0.932 -0.072,-1.385 -2.994,-23.375 -5.023,-46.854 -6.115,-70.384 14.208,-6.702 33.229,-10.799 54.131,-10.799 21.667,0 41.312,4.402 55.669,11.544 -2.474,25.529 -5.306,51.022 -8.521,76.47 -0.276,1.697 0.102,3.377 1.125,4.765 0.925,1.449 2.312,2.476 3.971,2.934 28.984,8.195 58.396,15.771 88.262,20.089 -0.057,7.386 -1.226,15.547 -3.619,23.894 -1.228,4.282 -2.703,8.352 -4.37,12.149 -43.142,0.986 -86.218,-9.053 -127.265,-21.433 -1.957,-0.592 -3.979,-0.943 -6.019,-1.065 -1.983,-0.119 -3.972,0.007 -5.927,0.347 -16.612,3.229 -33.343,5.817 -50.199,7.366 -1.368,0.1 -2.661,0.707 -3.203,2.036 -0.497,1.417 -0.039,2.901 0.713,4.137 4.463,7.19 9.164,14.229 14.168,21.05 -3.586,4.932 -8.834,9.826 -15.333,14.208 -3.271,-1.982 -6.25,-4.427 -8.759,-7.159 -14.21,-16.221 -26.047,-34.281 -36.205,-53.273 -1.854,-3.58 -3.174,-7.668 -2.477,-11.731 0.608,-3.174 2.674,-5.571 5.934,-6.11 16.79,-2.402 33.441,-5.661 50.011,-9.26 1.473,-0.307 2.671,-1.206 3.439,-2.492 0.925,-1.318 1.237,-2.903 1.07,-4.488 z"
       id="path4"
       inkscape:connector-curvature="0" /><path
       d="m 103.283,302.875 c 0.265,-15.162 12.771,-27.239 27.933,-26.975 15.163,0.265 27.24,12.771 26.975,27.934 -0.266,15.162 -12.771,27.239 -27.934,26.975 -15.162,-0.265 -27.239,-12.771 -26.974,-27.934 z"
       id="path6"
       inkscape:connector-curvature="0" /><path
       d="m 200.949,261.151 c -0.264,15.163 -12.771,27.239 -27.933,26.975 -15.162,-0.264 -27.239,-12.771 -26.975,-27.934 0.265,-15.162 12.771,-27.239 27.934,-26.975 15.163,0.264 27.239,12.772 26.974,27.934 z"
       id="path8"
       inkscape:connector-curvature="0" /></g></svg>