<?xml version="1.0" encoding="UTF-8" standalone="no"?>
<svg
   xmlns:dc="http://purl.org/dc/elements/1.1/"
   xmlns:cc="http://creativecommons.org/ns#"
   xmlns:rdf="http://www.w3.org/1999/02/22-rdf-syntax-ns#"
   xmlns:svg="http://www.w3.org/2000/svg"
   xmlns="http://www.w3.org/2000/svg"
   xmlns:sodipodi="http://sodipodi.sourceforge.net/DTD/sodipodi-0.dtd"
   xmlns:inkscape="http://www.inkscape.org/namespaces/inkscape"
   version="1.1"
   x="0px"
   y="0px"
   viewBox="0 0 779.99998 780"
   enable-background="new 0 0 276.488 620.902"
   xml:space="preserve"
   id="svg16"
   sodipodi:docname="4day.svg"
   width="780"
   height="780"
   inkscape:version="0.92.2 5c3e80d, 2017-08-06"><metadata
     id="metadata22"><rdf:RDF><cc:Work
         rdf:about=""><dc:format>image/svg+xml</dc:format><dc:type
           rdf:resource="http://purl.org/dc/dcmitype/StillImage" /><dc:title></dc:title></cc:Work></rdf:RDF></metadata><defs
     id="defs20" /><sodipodi:namedview
     pagecolor="#ffffff"
     bordercolor="#666666"
     borderopacity="1"
     objecttolerance="10"
     gridtolerance="10"
     guidetolerance="10"
     inkscape:pageopacity="0"
     inkscape:pageshadow="2"
     inkscape:window-width="1600"
     inkscape:window-height="728"
     id="namedview18"
     showgrid="false"
     inkscape:zoom="0.43002522"
     inkscape:cx="556.1742"
     inkscape:cy="258.53762"
     inkscape:window-x="0"
     inkscape:window-y="41"
     inkscape:window-maximized="0"
     inkscape:current-layer="svg16" /><g
     id="g10"
     transform="matrix(1.1345708,0,0,1.1535559,237.19539,22.47603)"><path
       d="m 185.489,185.363 c 3.163,6.552 6.282,13.125 9.354,19.721 0.344,0.818 0.769,1.6 1.312,2.302 0.538,0.672 1.214,1.206 1.967,1.621 25.094,14.012 50.169,28.06 75.127,42.313 5.966,3.73 2.362,12.959 -0.303,17.646 -3.108,5.032 -9.325,12.236 -16.059,10.216 -24.581,-9.203 -48.469,-20.185 -72.137,-31.5 -11.758,-5.485 -24.979,-5.658 -37.319,-2.101 -12.379,3.916 -23.293,11.553 -30.252,22.626 -13.833,22.575 -28.108,44.948 -44.016,66.132 -4.581,-3.529 -9.224,-6.977 -13.94,-10.324 -5.216,-3.263 -12.139,0.607 -16.644,4.174 -0.945,-1.942 -1.146,-4.068 -0.033,-6.27 14.162,-26.183 28.176,-52.446 42.16,-78.724 0.414,-0.772 0.738,-1.589 0.926,-2.446 0.094,-0.888 0.015,-1.778 -0.256,-2.63 -1.319,-5.413 -2.612,-10.833 -3.878,-16.258 13.886,1.25 30.14,-0.176 46.916,-4.672 24.968,-6.688 45.533,-18.684 57.075,-31.826 z M 5.186,33.983 C 3.563,30.6 1.976,27.201 0.427,23.786 -2.192,16.695 7.892,9.363 12.818,6.07 c 4.914,-3.1 15.803,-9.382 21,-3.909 4.868,5.785 9.599,11.685 14.227,17.667 -5.096,0.377 -10.444,1.226 -15.888,2.583 -10.478,2.613 -19.758,6.722 -26.971,11.572 z m 242.385,48.476 c -29.261,8.735 -58.039,19.035 -86.613,29.784 -2.748,1.128 -4.804,3.314 -5.802,6.107 -1.003,2.833 -0.716,5.859 0.653,8.518 9.655,18.163 18.995,36.489 27.981,54.989 -11.644,12.885 -31.939,24.594 -56.488,31.172 -16.716,4.479 -32.912,5.912 -46.765,4.685 -6.005,-26.007 -11.416,-52.148 -16.258,-78.4 -0.096,-0.442 -0.215,-0.879 -0.343,-1.313 -0.145,-0.477 -0.341,-0.935 -0.594,-1.365 C 43.376,103.875 23.077,70.889 6.302,36.3 13.448,31.583 22.555,27.593 32.81,25.036 c 5.909,-1.474 11.705,-2.348 17.187,-2.669 11.573,15.11 22.529,30.712 33.429,46.285 2.591,3.711 6.5,6.078 10.817,7.269 4.778,1.113 9.721,0.738 14.324,-0.934 33.499,-12.519 67.802,-23.74 102.964,-30.61 5.332,3.052 10.723,6.939 15.878,11.581 9.296,8.371 16.232,17.762 20.162,26.501 z M 231.462,40.982 c 10.879,-1.109 20.389,7.514 25.669,16.18 4.065,7.268 7.041,19.875 -3.223,23.432 l -3.961,1.159 c -3.811,-9.104 -10.968,-19.017 -20.729,-27.806 -4.471,-4.025 -9.118,-7.483 -13.752,-10.321 5.313,-0.986 10.644,-1.871 15.996,-2.644 z"
       id="path2"
       inkscape:connector-curvature="0" /><path
       d="m 129.784,353.615 c 0,-15.165 12.293,-27.458 27.458,-27.458 15.165,0 27.458,12.293 27.458,27.458 0,15.165 -12.293,27.458 -27.458,27.458 -15.165,0 -27.458,-12.293 -27.458,-27.458 z"
       id="path4"
       inkscape:connector-curvature="0" /><path
       d="m 129.784,279.666 c 0,-15.165 12.293,-27.458 27.458,-27.458 15.165,0 27.458,12.293 27.458,27.458 0,15.165 -12.293,27.458 -27.458,27.458 -15.165,0 -27.458,-12.293 -27.458,-27.458 z"
       id="path6"
       inkscape:connector-curvature="0" /><path
       d="m 227.667,610.259 c -6.382,5.479 -14.939,8.804 -23.285,8.838 -8.229,-0.359 -11.844,-6.257 -6.732,-13.128 1.752,-2.257 3.468,-4.539 5.151,-6.846 6.706,4.462 15.037,8.318 24.379,10.997 z M 103.949,598.738 c 2.055,2.916 4.158,5.798 6.316,8.641 5.227,7.326 0.007,12.891 -7.923,13.508 -9.396,0.285 -19.374,-3.323 -26.061,-10.029 0.902,-0.231 1.808,-0.477 2.715,-0.737 9.611,-2.756 18.151,-6.758 24.953,-11.383 z m -3.94,-156.05 c -0.734,-10.193 -1.364,-20.396 -1.892,-30.603 -0.1,-0.871 -0.319,-1.72 -0.638,-2.536 -0.32,-0.79 -0.77,-1.516 -1.366,-2.127 -20.191,-20.612 -40.371,-41.236 -60.46,-61.947 -4.477,-5.054 1.82,-12.629 5.508,-16.104 0.439,-0.383 0.915,-0.779 1.421,-1.181 1.828,3.76 6.44,6.832 9.689,8.441 5.644,2.546 15.024,4.924 19.679,-0.681 l 1.215,-1.61 c 16.219,12.492 31.669,25.999 46.897,39.655 9.707,8.584 22.47,13.072 35.384,13.171 12.692,0.096 25.401,-4 34.919,-12.534 18.183,-16.605 36.589,-33.081 56.235,-47.954 5.427,-3.487 12.949,2.138 16.824,5.714 3.456,3.395 9.844,10.894 5.787,15.863 -17.854,20.401 -36.456,40.145 -55.112,59.81 -0.571,0.601 -0.994,1.313 -1.291,2.086 -0.299,0.806 -0.499,1.643 -0.586,2.498 -0.343,8.609 -0.783,17.214 -1.32,25.812 -13.843,-5.915 -31.697,-9.478 -51.188,-9.478 -23.773,-10e-4 -45.112,5.299 -59.705,13.705 z m 6.927,72.408 c 0.091,-0.525 -0.381,-0.943 -0.419,-1.453 0.09,-0.414 0.152,-0.835 0.141,-1.26 -2.593,-21.807 -4.707,-43.666 -6.345,-65.562 14.584,-8.304 35.793,-13.53 59.402,-13.53 19.363,0 37.113,3.517 50.917,9.362 -1.591,24.016 -3.942,47.977 -7.054,71.85 -0.169,1.645 0.121,3.296 0.999,4.71 0.869,1.429 2.247,2.372 3.873,2.735 18.204,4.665 36.506,8.967 54.973,12.464 3.616,0.685 6.039,3.32 6.897,6.837 0.812,4.235 -0.474,8.499 -2.479,12.216 -10.645,19.363 -22.913,37.822 -37.616,54.355 l -0.252,0.265 c -0.682,-0.18 -1.364,-0.367 -2.048,-0.563 -8.988,-2.577 -17.041,-6.244 -23.61,-10.492 4.6,-6.413 8.953,-13 13.12,-19.706 0.791,-1.344 1.221,-2.947 0.635,-4.454 -0.676,-1.388 -2.092,-2.091 -3.555,-2.348 -17.869,-2.618 -35.563,-6.239 -53.101,-10.537 -2.062,-0.461 -4.172,-0.684 -6.285,-0.66 -2.069,0.021 -4.127,0.308 -6.137,0.797 -18.048,4.777 -36.278,8.828 -54.701,11.878 -1.541,0.298 -3.041,1.037 -3.805,2.472 -0.651,1.503 -0.298,3.129 0.498,4.501 3.675,5.986 7.49,11.885 11.489,17.657 -6.679,4.417 -14.953,8.234 -24.223,10.893 -1.348,0.387 -2.691,0.741 -4.026,1.063 -14.128,-16.131 -26.012,-34.037 -36.466,-52.737 -2.02,-3.803 -3.184,-8.169 -2.182,-12.449 1.08,-3.745 3.866,-6.393 7.709,-7.139 19.656,-3.819 39.133,-8.481 58.497,-13.569 1.665,-0.417 3.06,-1.429 4.053,-2.819 0.918,-1.428 1.254,-3.1 1.101,-4.777 z"
       id="path8"
       inkscape:connector-curvature="0" /></g></svg>